<svg xmlns="http://www.w3.org/2000/svg" width="746" height="225" viewBox="0 0 746 225" role="img" aria-label="Perfekt Deutsch">
  <rect width="746" height="225" fill="#fff"/>
  <g transform="translate(28 16)">
    <path d="M0 135V51C0 23 20 0 47 0c31 0 57 25 57 57v58L58 145 0 135Z" fill="#251000"/>
    <path d="M48 93c0-29 22-53 50-53 27 0 50 22 50 49v60c0 6-5 10-11 10H95c-26 0-47-21-47-47V93Z" fill="#fff01a" stroke="#251000" stroke-width="2"/>
    <path d="M98 40c21 0 39 14 47 34-6-3-13-5-20-5-28 0-50 24-50 53v37H62c-8-9-14-21-14-35V93c0-29 22-53 50-53Z" fill="#fff01a"/>
  </g>
  <g fill="#251000" font-family="Arial Narrow, Arial, Helvetica, sans-serif">
    <text x="242" y="88" font-size="72" font-weight="400" letter-spacing="-1.5">PERFEKT</text>
    <text x="242" y="168" font-size="72" font-weight="300" letter-spacing="-2">DEUTSCH</text>
  </g>
</svg>